{
  "accessors": [
    {
      "bufferView": 2,
      "componentType": 5126,
      "count": 1683,
      "max": [
        1.6907000541687012,
        4.7993102073669434,
        4.0060501098632812
      ],
      "min": [
        -1.6907000541687012,
        -4.7480101585388184,
        -4.7339200973510742
      ],
      "type": "VEC3"
    },
    {
      "bufferView": 2,
      "byteOffset": 20196,
      "componentType": 5126,
      "count": 1683,
      "max": [
        0.99834007024765015,
        0.99903368949890137,
        0.9999890923500061
      ],
      "min": [
        -0.99961990118026733,
        -0.99999731779098511,
        -0.99999958276748657
      ],
      "type": "VEC3"
    },
    {
      "bufferView": 3,
      "componentType": 5126,
      "count": 1683,
      "max": [
        1,
        0.99995410442352295,
        0.99845540523529053,
        1
      ],
      "min": [
        -1,
        -0.9999995231628418,
        -0.99960541725158691,
        -1
      ],
      "type": "VEC4"
    },
    {
      "bufferView": 1,
      "componentType": 5126,
      "count": 1683,
      "max": [
        0.99607998132705688,
        0.99686002731323242
      ],
      "min": [
        0.0031799999997019768,
        0.0031399999279528856
      ],
      "type": "VEC2"
    },
    {
      "bufferView": 0,
      "componentType": 5125,
      "count": 5340,
      "max": [
        1682
      ],
      "min": [
        0
      ],
      "type": "SCALAR"
    },
    {
      "bufferView": 2,
      "byteOffset": 40392,
      "componentType": 5126,
      "count": 63,
      "max": [
        0.68761998414993286,
        0.67808002233505249,
        0.37975999712944031
      ],
      "min": [
        -0.68761998414993286,
        -1.3219200372695923,
        -0.012280000373721123
      ],
      "type": "VEC3"
    },
    {
      "bufferView": 2,
      "byteOffset": 41148,
      "componentType": 5126,
      "count": 63,
      "max": [
        0.12708283960819244,
        0.94895398616790771,
        0.99921286106109619
      ],
      "min": [
        -0.12708283960819244,
        -0.18061086535453796,
        0.31541463732719421
      ],
      "type": "VEC3"
    },
    {
      "bufferView": 3,
      "byteOffset": 26928,
      "componentType": 5126,
      "count": 63,
      "max": [
        0.99999183416366577,
        0.96534824371337891,
        0.94895404577255249,
        1
      ],
      "min": [
        -0.99999183416366577,
        -0.99921292066574097,
        -0.5792575478553772,
        -1
      ],
      "type": "VEC4"
    },
    {
      "bufferView": 1,
      "byteOffset": 13464,
      "componentType": 5126,
      "count": 63,
      "max": [
        0.11403000354766846,
        0.28591001033782959
      ],
      "min": [
        0.010970000177621841,
        0.1828400045633316
      ],
      "type": "VEC2"
    },
    {
      "bufferView": 0,
      "byteOffset": 21360,
      "componentType": 5125,
      "count": 252,
      "max": [
        62
      ],
      "min": [
        0
      ],
      "type": "SCALAR"
    },
    {
      "bufferView": 2,
      "byteOffset": 41904,
      "componentType": 5126,
      "count": 32,
      "max": [
        0.96384000778198242,
        0.96384000778198242,
        1
      ],
      "min": [
        -0.96384000778198242,
        -0.96384000778198242,
        1
      ],
      "type": "VEC3"
    },
    {
      "bufferView": 2,
      "byteOffset": 42288,
      "componentType": 5126,
      "count": 32,
      "max": [
        0,
        0,
        1
      ],
      "min": [
        0,
        0,
        1
      ],
      "type": "VEC3"
    },
    {
      "bufferView": 0,
      "byteOffset": 22368,
      "componentType": 5125,
      "count": 90,
      "max": [
        31
      ],
      "min": [
        0
      ],
      "type": "SCALAR"
    }
  ],
  "asset": {
    "extras": {
      "author": "Joe McDowall (https://sketchfab.com/joboto)",
      "license": "CC-BY-4.0 (http://creativecommons.org/licenses/by/4.0/)",
      "source": "https://sketchfab.com/models/1c8c763518ab4751bfcddf0b6a34011a",
      "title": "Low poly doggy"
    },
    "generator": "Sketchfab-3.18.5",
    "version": "2.0"
  },
  "bufferViews": [
    {
      "buffer": 0,
      "byteLength": 22728,
      "byteOffset": 0,
      "name": "floatBufferViews",
      "target": 34963
    },
    {
      "buffer": 0,
      "byteLength": 13968,
      "byteOffset": 22728,
      "byteStride": 8,
      "name": "floatBufferViews",
      "target": 34962
    },
    {
      "buffer": 0,
      "byteLength": 42672,
      "byteOffset": 36696,
      "byteStride": 12,
      "name": "floatBufferViews",
      "target": 34962
    },
    {
      "buffer": 0,
      "byteLength": 27936,
      "byteOffset": 79368,
      "byteStride": 16,
      "name": "floatBufferViews",
      "target": 34962
    }
  ],
  "buffers": [
    {
      "byteLength": 107304,
      "uri": "scene.bin"
    }
  ],
  "images": [
    {
      "uri": "textures/Shiba-inu_baseColor.png"
    }
  ],
  "materials": [
    {
      "doubleSided": true,
      "emissiveFactor": [
        0,
        0,
        0
      ],
      "name": "inner",
      "pbrMetallicRoughness": {
        "baseColorFactor": [
          0.156920673774195,
          0.23063707695072647,
          0.029023665631727018,
          1
        ],
        "metallicFactor": 0,
        "roughnessFactor": 0.59999999999999998
      }
    },
    {
      "doubleSided": true,
      "emissiveFactor": [
        0,
        0,
        0
      ],
      "name": "Shiba-inu",
      "pbrMetallicRoughness": {
        "baseColorFactor": [
          1,
          1,
          1,
          1
        ],
        "baseColorTexture": {
          "index": 0,
          "texCoord": 0
        },
        "metallicFactor": 0,
        "roughnessFactor": 0.59999999999999998
      }
    }
  ],
  "meshes": [
    {
      "name": "Cylinder.001_0",
      "primitives": [
        {
          "attributes": {
            "NORMAL": 1,
            "POSITION": 0,
            "TANGENT": 2,
            "TEXCOORD_0": 3
          },
          "indices": 4,
          "material": 1,
          "mode": 4
        }
      ]
    },
    {
      "name": "Plane_0",
      "primitives": [
        {
          "attributes": {
            "NORMAL": 6,
            "POSITION": 5,
            "TANGENT": 7,
            "TEXCOORD_0": 8
          },
          "indices": 9,
          "material": 1,
          "mode": 4
        }
      ]
    },
    {
      "name": "Cylinder_0",
      "primitives": [
        {
          "attributes": {
            "NORMAL": 11,
            "POSITION": 10
          },
          "indices": 12,
          "material": 0,
          "mode": 4
        }
      ]
    }
  ],
  "nodes": [
    {
      "children": [
        1
      ],
      "name": "RootNode (gltf orientation matrix)",
      "rotation": [
        -0.70710678118654746,
        -0,
        -0,
        0.70710678118654757
      ]
    },
    {
      "children": [
        2
      ],
      "name": "RootNode (model correction matrix)"
    },
    {
      "children": [
        3,
        5,
        7,
        9,
        11
      ],
      "name": "Root"
    },
    {
      "children": [
        4
      ],
      "matrix": [
        1,
        -0,
        0,
        0,
        0,
        1,
        0,
        0,
        0,
        0,
        1,
        0,
        0,
        0.87207000000000012,
        4.7286799999999998,
        1
      ],
      "name": "Cylinder.001"
    },
    {
      "mesh": 0,
      "name": "Cylinder.001_0"
    },
    {
      "children": [
        6
      ],
      "matrix": [
        0.27137000000000006,
        0,
        0,
        0,
        0,
        0.65897000000000017,
        0,
        0,
        0,
        0,
        0.65897000000000017,
        0,
        -0.003200000000000001,
        5.1758299999999995,
        6.6449699999999989,
        1
      ],
      "name": "Plane"
    },
    {
      "mesh": 1,
      "name": "Plane_0"
    },
    {
      "children": [
        8
      ],
      "matrix": [
        13.443659999999999,
        0,
        0,
        0,
        0,
        13.443659999999999,
        0,
        0,
        0,
        0,
        0.57113000000000003,
        0,
        0,
        0,
        -0.57149000000000005,
        1
      ],
      "name": "Cylinder"
    },
    {
      "mesh": 2,
      "name": "Cylinder_0"
    },
    {
      "children": [
        10
      ],
      "matrix": [
        1,
        0,
        0,
        0,
        0,
        1,
        0,
        0,
        0,
        0,
        1,
        0,
        -8.12974,
        -1.9233899999999997,
        12.923909999999999,
        1
      ],
      "name": "Point"
    },
    {
      "name": "Point"
    },
    {
      "children": [
        12
      ],
      "matrix": [
        1,
        0,
        0,
        0,
        0,
        1,
        0,
        0,
        0,
        0,
        1,
        0,
        17.876260000000002,
        -8.4415300000000002,
        5.2549899999999994,
        1
      ],
      "name": "Point.001"
    },
    {
      "name": "Point.001"
    }
  ],
  "samplers": [
    {
      "magFilter": 9729,
      "minFilter": 9987,
      "wrapS": 10497,
      "wrapT": 10497
    }
  ],
  "scene": 0,
  "scenes": [
    {
      "name": "OSG_Scene",
      "nodes": [
        0
      ]
    }
  ],
  "textures": [
    {
      "sampler": 0,
      "source": 0
    }
  ]
}

