{
  "asset": {
    "version": "2.0",
    "generator": "Sketchup glTF Exporter v1.2.6 by Centaur"
  },
  "scene": 0,
  "scenes": [
    {
      "nodes": [
        0
      ]
    }
  ],
  "samplers": [
    {
    }
  ],
  "nodes": [
    {
      "name": "root",
      "children": [
        1,
        2,
        5
      ]
    },
    {
      "name": "plank",
      "mesh": 0
    },
    {
      "name": "sideA",
      "children": [
        3,
        4
      ]
    },
    {
      "name": "upright",
      "mesh": 1
    },
    {
      "name": "foot",
      "mesh": 2
    },
    {
      "name": "sideA",
      "children": [
        6,
        7
      ]
    },
    {
      "name": "upright",
      "mesh": 3
    },
    {
      "name": "foot",
      "mesh": 4
    }
  ],
  "materials": [
    {
      "pbrMetallicRoughness": {
        "baseColorFactor": [
          1.0,
          1.0,
          1.0,
          1.0
        ],
        "metallicFactor": 0.1,
        "roughnessFactor": 0.9
      },
      "name": "Color M00"
    },
    {
      "pbrMetallicRoughness": {
        "baseColorFactor": [
          0.2176,
          0.2176,
          0.2176,
          1.0
        ],
        "metallicFactor": 0.1,
        "roughnessFactor": 0.9
      },
      "name": "default material",
      "doubleSided": true
    },
    {
      "pbrMetallicRoughness": {
        "baseColorFactor": [
          0.0,
          0.0,
          1.0,
          1.0
        ],
        "metallicFactor": 0.1,
        "roughnessFactor": 0.9
      },
      "name": "Color I05"
    },
    {
      "pbrMetallicRoughness": {
        "baseColorFactor": [
          0.325,
          0.0697,
          0.0,
          1.0
        ],
        "metallicFactor": 0.1,
        "roughnessFactor": 0.9
      },
      "name": "Color C07"
    }
  ],
  "meshes": [
    {
      "primitives": [
        {
          "attributes": {
            "POSITION": 0,
            "NORMAL": 1
          },
          "indices": 2,
          "mode": 4,
          "material": 0
        },
        {
          "attributes": {
            "POSITION": 0,
            "NORMAL": 1
          },
          "indices": 3,
          "mode": 4,
          "material": 1
        },
        {
          "attributes": {
            "POSITION": 0,
            "NORMAL": 1
          },
          "indices": 4,
          "mode": 4,
          "material": 2
        }
      ]
    },
    {
      "primitives": [
        {
          "attributes": {
            "POSITION": 0,
            "NORMAL": 1
          },
          "indices": 5,
          "mode": 4,
          "material": 1
        }
      ]
    },
    {
      "primitives": [
        {
          "attributes": {
            "POSITION": 0,
            "NORMAL": 1
          },
          "indices": 6,
          "mode": 4,
          "material": 3
        }
      ]
    },
    {
      "primitives": [
        {
          "attributes": {
            "POSITION": 0,
            "NORMAL": 1
          },
          "indices": 7,
          "mode": 4,
          "material": 1
        }
      ]
    },
    {
      "primitives": [
        {
          "attributes": {
            "POSITION": 0,
            "NORMAL": 1
          },
          "indices": 8,
          "mode": 4,
          "material": 3
        }
      ]
    }
  ],
  "accessors": [
    {
      "bufferView": 0,
      "componentType": 5126,
      "count": 252,
      "type": "VEC3",
      "min": [
        -0.1949544022246341,
        -4.130193569006617e-17,
        -1.85985854785375
      ],
      "max": [
        0.19495440222463428,
        1.402141961661934,
        1.8719439848186974
      ]
    },
    {
      "bufferView": 1,
      "componentType": 5126,
      "count": 252,
      "type": "VEC3",
      "min": [
        -1.0,
        -1.0,
        -1.0
      ],
      "max": [
        1.0,
        1.0,
        1.0
      ]
    },
    {
      "bufferView": 2,
      "componentType": 5121,
      "count": 18,
      "type": "SCALAR"
    },
    {
      "bufferView": 2,
      "componentType": 5121,
      "count": 54,
      "type": "SCALAR",
      "byteOffset": 18
    },
    {
      "bufferView": 2,
      "componentType": 5121,
      "count": 36,
      "type": "SCALAR",
      "byteOffset": 72
    },
    {
      "bufferView": 2,
      "componentType": 5121,
      "count": 72,
      "type": "SCALAR",
      "byteOffset": 108
    },
    {
      "bufferView": 2,
      "componentType": 5121,
      "count": 108,
      "type": "SCALAR",
      "byteOffset": 180
    },
    {
      "bufferView": 2,
      "componentType": 5121,
      "count": 72,
      "type": "SCALAR",
      "byteOffset": 288
    },
    {
      "bufferView": 2,
      "componentType": 5121,
      "count": 108,
      "type": "SCALAR",
      "byteOffset": 360
    }
  ],
  "bufferViews": [
    {
      "buffer": 0,
      "byteLength": 3024,
      "target": 34962,
      "byteStride": 12
    },
    {
      "buffer": 0,
      "byteOffset": 3024,
      "byteLength": 3024,
      "target": 34962,
      "byteStride": 12
    },
    {
      "buffer": 0,
      "byteOffset": 6048,
      "byteLength": 468,
      "target": 34963
    }
  ],
  "buffers": [
    {
      "uri": "data:application/octet-stream;base64,",
      "byteLength": 6516
    }
  ]
}