{
  "asset": {
    "version": "2.0",
    "generator": "Sketchup glTF Exporter v1.2.6 by Centaur"
  },
  "scene": 0,
  "scenes": [
    {
      "nodes": [
        0
      ]
    }
  ],
  "samplers": [
    {
    }
  ],
  "nodes": [
    {
      "name": "root",
      "children": [
        1,
        5,
        9,
        13,
        17,
        21,
        25,
        29,
        33
      ]
    },
    {
      "name": "pole",
      "children": [
        2,
        3,
        4
      ],
      "mesh": 3
    },
    {
      "name": "base#1",
      "mesh": 0
    },
    {
      "name": "base#1",
      "mesh": 1
    },
    {
      "name": "base",
      "mesh": 2
    },
    {
      "name": "pole",
      "children": [
        6,
        7,
        8
      ],
      "mesh": 7
    },
    {
      "name": "base#1",
      "mesh": 4
    },
    {
      "name": "base#1",
      "mesh": 5
    },
    {
      "name": "base",
      "mesh": 6
    },
    {
      "name": "pole",
      "children": [
        10,
        11,
        12
      ],
      "mesh": 11
    },
    {
      "name": "base#1",
      "mesh": 8
    },
    {
      "name": "base#1",
      "mesh": 9
    },
    {
      "name": "base",
      "mesh": 10
    },
    {
      "name": "pole",
      "children": [
        14,
        15,
        16
      ],
      "mesh": 15
    },
    {
      "name": "base#1",
      "mesh": 12
    },
    {
      "name": "base#1",
      "mesh": 13
    },
    {
      "name": "base",
      "mesh": 14
    },
    {
      "name": "pole",
      "children": [
        18,
        19,
        20
      ],
      "mesh": 19
    },
    {
      "name": "base#1",
      "mesh": 16
    },
    {
      "name": "base#1",
      "mesh": 17
    },
    {
      "name": "base",
      "mesh": 18
    },
    {
      "name": "pole",
      "children": [
        22,
        23,
        24
      ],
      "mesh": 23
    },
    {
      "name": "base#1",
      "mesh": 20
    },
    {
      "name": "base#1",
      "mesh": 21
    },
    {
      "name": "base",
      "mesh": 22
    },
    {
      "name": "pole",
      "children": [
        26,
        27,
        28
      ],
      "mesh": 27
    },
    {
      "name": "base#1",
      "mesh": 24
    },
    {
      "name": "base#1",
      "mesh": 25
    },
    {
      "name": "base",
      "mesh": 26
    },
    {
      "name": "pole",
      "children": [
        30,
        31,
        32
      ],
      "mesh": 31
    },
    {
      "name": "base#1",
      "mesh": 28
    },
    {
      "name": "base#1",
      "mesh": 29
    },
    {
      "name": "base",
      "mesh": 30
    },
    {
      "name": "pole",
      "children": [
        34,
        35,
        36
      ],
      "mesh": 35
    },
    {
      "name": "base#1",
      "mesh": 32
    },
    {
      "name": "base#1",
      "mesh": 33
    },
    {
      "name": "base",
      "mesh": 34
    }
  ],
  "materials": [
    {
      "pbrMetallicRoughness": {
        "baseColorFactor": [
          1.0,
          1.0,
          1.0,
          1.0
        ],
        "metallicFactor": 0.1,
        "roughnessFactor": 0.9
      },
      "name": "Color M00"
    },
    {
      "pbrMetallicRoughness": {
        "baseColorFactor": [
          0.0,
          0.0,
          0.0,
          1.0
        ],
        "metallicFactor": 0.1,
        "roughnessFactor": 0.9
      },
      "name": "Color M09"
    },
    {
      "pbrMetallicRoughness": {
        "baseColorFactor": [
          0.0,
          0.0,
          1.0,
          1.0
        ],
        "metallicFactor": 0.1,
        "roughnessFactor": 0.9
      },
      "name": "Color I05"
    },
    {
      "pbrMetallicRoughness": {
        "baseColorFactor": [
          0.2176,
          0.2176,
          0.2176,
          1.0
        ],
        "metallicFactor": 0.1,
        "roughnessFactor": 0.9
      },
      "name": "default material",
      "doubleSided": true
    }
  ],
  "meshes": [
    {
      "primitives": [
        {
          "attributes": {
            "POSITION": 0,
            "NORMAL": 1
          },
          "indices": 2,
          "mode": 4,
          "material": 0
        }
      ]
    },
    {
      "primitives": [
        {
          "attributes": {
            "POSITION": 0,
            "NORMAL": 1
          },
          "indices": 3,
          "mode": 4,
          "material": 1
        }
      ]
    },
    {
      "primitives": [
        {
          "attributes": {
            "POSITION": 0,
            "NORMAL": 1
          },
          "indices": 4,
          "mode": 4,
          "material": 2
        }
      ]
    },
    {
      "primitives": [
        {
          "attributes": {
            "POSITION": 0,
            "NORMAL": 1
          },
          "indices": 5,
          "mode": 4,
          "material": 1
        },
        {
          "attributes": {
            "POSITION": 0,
            "NORMAL": 1
          },
          "indices": 6,
          "mode": 4,
          "material": 3
        }
      ]
    },
    {
      "primitives": [
        {
          "attributes": {
            "POSITION": 0,
            "NORMAL": 1
          },
          "indices": 7,
          "mode": 4,
          "material": 0
        }
      ]
    },
    {
      "primitives": [
        {
          "attributes": {
            "POSITION": 0,
            "NORMAL": 1
          },
          "indices": 8,
          "mode": 4,
          "material": 1
        }
      ]
    },
    {
      "primitives": [
        {
          "attributes": {
            "POSITION": 0,
            "NORMAL": 1
          },
          "indices": 9,
          "mode": 4,
          "material": 2
        }
      ]
    },
    {
      "primitives": [
        {
          "attributes": {
            "POSITION": 0,
            "NORMAL": 1
          },
          "indices": 10,
          "mode": 4,
          "material": 1
        },
        {
          "attributes": {
            "POSITION": 0,
            "NORMAL": 1
          },
          "indices": 11,
          "mode": 4,
          "material": 3
        }
      ]
    },
    {
      "primitives": [
        {
          "attributes": {
            "POSITION": 0,
            "NORMAL": 1
          },
          "indices": 12,
          "mode": 4,
          "material": 0
        }
      ]
    },
    {
      "primitives": [
        {
          "attributes": {
            "POSITION": 0,
            "NORMAL": 1
          },
          "indices": 13,
          "mode": 4,
          "material": 1
        }
      ]
    },
    {
      "primitives": [
        {
          "attributes": {
            "POSITION": 0,
            "NORMAL": 1
          },
          "indices": 14,
          "mode": 4,
          "material": 2
        }
      ]
    },
    {
      "primitives": [
        {
          "attributes": {
            "POSITION": 0,
            "NORMAL": 1
          },
          "indices": 15,
          "mode": 4,
          "material": 1
        },
        {
          "attributes": {
            "POSITION": 0,
            "NORMAL": 1
          },
          "indices": 16,
          "mode": 4,
          "material": 3
        }
      ]
    },
    {
      "primitives": [
        {
          "attributes": {
            "POSITION": 0,
            "NORMAL": 1
          },
          "indices": 17,
          "mode": 4,
          "material": 0
        }
      ]
    },
    {
      "primitives": [
        {
          "attributes": {
            "POSITION": 0,
            "NORMAL": 1
          },
          "indices": 18,
          "mode": 4,
          "material": 1
        }
      ]
    },
    {
      "primitives": [
        {
          "attributes": {
            "POSITION": 0,
            "NORMAL": 1
          },
          "indices": 19,
          "mode": 4,
          "material": 2
        }
      ]
    },
    {
      "primitives": [
        {
          "attributes": {
            "POSITION": 0,
            "NORMAL": 1
          },
          "indices": 20,
          "mode": 4,
          "material": 1
        },
        {
          "attributes": {
            "POSITION": 0,
            "NORMAL": 1
          },
          "indices": 21,
          "mode": 4,
          "material": 3
        }
      ]
    },
    {
      "primitives": [
        {
          "attributes": {
            "POSITION": 0,
            "NORMAL": 1
          },
          "indices": 22,
          "mode": 4,
          "material": 0
        }
      ]
    },
    {
      "primitives": [
        {
          "attributes": {
            "POSITION": 0,
            "NORMAL": 1
          },
          "indices": 23,
          "mode": 4,
          "material": 1
        }
      ]
    },
    {
      "primitives": [
        {
          "attributes": {
            "POSITION": 0,
            "NORMAL": 1
          },
          "indices": 24,
          "mode": 4,
          "material": 2
        }
      ]
    },
    {
      "primitives": [
        {
          "attributes": {
            "POSITION": 0,
            "NORMAL": 1
          },
          "indices": 25,
          "mode": 4,
          "material": 1
        },
        {
          "attributes": {
            "POSITION": 0,
            "NORMAL": 1
          },
          "indices": 26,
          "mode": 4,
          "material": 3
        }
      ]
    },
    {
      "primitives": [
        {
          "attributes": {
            "POSITION": 0,
            "NORMAL": 1
          },
          "indices": 27,
          "mode": 4,
          "material": 0
        }
      ]
    },
    {
      "primitives": [
        {
          "attributes": {
            "POSITION": 0,
            "NORMAL": 1
          },
          "indices": 28,
          "mode": 4,
          "material": 1
        }
      ]
    },
    {
      "primitives": [
        {
          "attributes": {
            "POSITION": 0,
            "NORMAL": 1
          },
          "indices": 29,
          "mode": 4,
          "material": 2
        }
      ]
    },
    {
      "primitives": [
        {
          "attributes": {
            "POSITION": 0,
            "NORMAL": 1
          },
          "indices": 30,
          "mode": 4,
          "material": 1
        },
        {
          "attributes": {
            "POSITION": 0,
            "NORMAL": 1
          },
          "indices": 31,
          "mode": 4,
          "material": 3
        }
      ]
    },
    {
      "primitives": [
        {
          "attributes": {
            "POSITION": 0,
            "NORMAL": 1
          },
          "indices": 32,
          "mode": 4,
          "material": 0
        }
      ]
    },
    {
      "primitives": [
        {
          "attributes": {
            "POSITION": 0,
            "NORMAL": 1
          },
          "indices": 33,
          "mode": 4,
          "material": 1
        }
      ]
    },
    {
      "primitives": [
        {
          "attributes": {
            "POSITION": 0,
            "NORMAL": 1
          },
          "indices": 34,
          "mode": 4,
          "material": 2
        }
      ]
    },
    {
      "primitives": [
        {
          "attributes": {
            "POSITION": 0,
            "NORMAL": 1
          },
          "indices": 35,
          "mode": 4,
          "material": 1
        },
        {
          "attributes": {
            "POSITION": 0,
            "NORMAL": 1
          },
          "indices": 36,
          "mode": 4,
          "material": 3
        }
      ]
    },
    {
      "primitives": [
        {
          "attributes": {
            "POSITION": 0,
            "NORMAL": 1
          },
          "indices": 37,
          "mode": 4,
          "material": 0
        }
      ]
    },
    {
      "primitives": [
        {
          "attributes": {
            "POSITION": 0,
            "NORMAL": 1
          },
          "indices": 38,
          "mode": 4,
          "material": 1
        }
      ]
    },
    {
      "primitives": [
        {
          "attributes": {
            "POSITION": 0,
            "NORMAL": 1
          },
          "indices": 39,
          "mode": 4,
          "material": 2
        }
      ]
    },
    {
      "primitives": [
        {
          "attributes": {
            "POSITION": 0,
            "NORMAL": 1
          },
          "indices": 40,
          "mode": 4,
          "material": 1
        },
        {
          "attributes": {
            "POSITION": 0,
            "NORMAL": 1
          },
          "indices": 41,
          "mode": 4,
          "material": 3
        }
      ]
    },
    {
      "primitives": [
        {
          "attributes": {
            "POSITION": 0,
            "NORMAL": 1
          },
          "indices": 42,
          "mode": 4,
          "material": 0
        }
      ]
    },
    {
      "primitives": [
        {
          "attributes": {
            "POSITION": 0,
            "NORMAL": 1
          },
          "indices": 43,
          "mode": 4,
          "material": 1
        }
      ]
    },
    {
      "primitives": [
        {
          "attributes": {
            "POSITION": 0,
            "NORMAL": 1
          },
          "indices": 44,
          "mode": 4,
          "material": 2
        }
      ]
    },
    {
      "primitives": [
        {
          "attributes": {
            "POSITION": 0,
            "NORMAL": 1
          },
          "indices": 45,
          "mode": 4,
          "material": 1
        },
        {
          "attributes": {
            "POSITION": 0,
            "NORMAL": 1
          },
          "indices": 46,
          "mode": 4,
          "material": 3
        }
      ]
    }
  ],
  "accessors": [
    {
      "bufferView": 0,
      "componentType": 5126,
      "count": 4144,
      "type": "VEC3",
      "min": [
        -0.02500000000000087,
        -1.6532731788489286e-16,
        -2.7000000000000024
      ],
      "max": [
        0.025000000000000452,
        0.7630000000000001,
        2.6999999999999944
      ]
    },
    {
      "bufferView": 1,
      "componentType": 5126,
      "count": 4144,
      "type": "VEC3",
      "min": [
        -1.0,
        -1.0,
        -1.0
      ],
      "max": [
        1.0,
        1.0,
        1.0
      ]
    },
    {
      "bufferView": 2,
      "componentType": 5123,
      "count": 276,
      "type": "SCALAR"
    },
    {
      "bufferView": 2,
      "componentType": 5123,
      "count": 276,
      "type": "SCALAR",
      "byteOffset": 552
    },
    {
      "bufferView": 2,
      "componentType": 5123,
      "count": 276,
      "type": "SCALAR",
      "byteOffset": 1104
    },
    {
      "bufferView": 2,
      "componentType": 5123,
      "count": 546,
      "type": "SCALAR",
      "byteOffset": 1656
    },
    {
      "bufferView": 2,
      "componentType": 5123,
      "count": 72,
      "type": "SCALAR",
      "byteOffset": 2748
    },
    {
      "bufferView": 2,
      "componentType": 5123,
      "count": 276,
      "type": "SCALAR",
      "byteOffset": 2892
    },
    {
      "bufferView": 2,
      "componentType": 5123,
      "count": 276,
      "type": "SCALAR",
      "byteOffset": 3444
    },
    {
      "bufferView": 2,
      "componentType": 5123,
      "count": 276,
      "type": "SCALAR",
      "byteOffset": 3996
    },
    {
      "bufferView": 2,
      "componentType": 5123,
      "count": 546,
      "type": "SCALAR",
      "byteOffset": 4548
    },
    {
      "bufferView": 2,
      "componentType": 5123,
      "count": 72,
      "type": "SCALAR",
      "byteOffset": 5640
    },
    {
      "bufferView": 2,
      "componentType": 5123,
      "count": 276,
      "type": "SCALAR",
      "byteOffset": 5784
    },
    {
      "bufferView": 2,
      "componentType": 5123,
      "count": 276,
      "type": "SCALAR",
      "byteOffset": 6336
    },
    {
      "bufferView": 2,
      "componentType": 5123,
      "count": 276,
      "type": "SCALAR",
      "byteOffset": 6888
    },
    {
      "bufferView": 2,
      "componentType": 5123,
      "count": 546,
      "type": "SCALAR",
      "byteOffset": 7440
    },
    {
      "bufferView": 2,
      "componentType": 5123,
      "count": 72,
      "type": "SCALAR",
      "byteOffset": 8532
    },
    {
      "bufferView": 2,
      "componentType": 5123,
      "count": 276,
      "type": "SCALAR",
      "byteOffset": 8676
    },
    {
      "bufferView": 2,
      "componentType": 5123,
      "count": 276,
      "type": "SCALAR",
      "byteOffset": 9228
    },
    {
      "bufferView": 2,
      "componentType": 5123,
      "count": 276,
      "type": "SCALAR",
      "byteOffset": 9780
    },
    {
      "bufferView": 2,
      "componentType": 5123,
      "count": 546,
      "type": "SCALAR",
      "byteOffset": 10332
    },
    {
      "bufferView": 2,
      "componentType": 5123,
      "count": 72,
      "type": "SCALAR",
      "byteOffset": 11424
    },
    {
      "bufferView": 2,
      "componentType": 5123,
      "count": 276,
      "type": "SCALAR",
      "byteOffset": 11568
    },
    {
      "bufferView": 2,
      "componentType": 5123,
      "count": 276,
      "type": "SCALAR",
      "byteOffset": 12120
    },
    {
      "bufferView": 2,
      "componentType": 5123,
      "count": 276,
      "type": "SCALAR",
      "byteOffset": 12672
    },
    {
      "bufferView": 2,
      "componentType": 5123,
      "count": 546,
      "type": "SCALAR",
      "byteOffset": 13224
    },
    {
      "bufferView": 2,
      "componentType": 5123,
      "count": 72,
      "type": "SCALAR",
      "byteOffset": 14316
    },
    {
      "bufferView": 2,
      "componentType": 5123,
      "count": 276,
      "type": "SCALAR",
      "byteOffset": 14460
    },
    {
      "bufferView": 2,
      "componentType": 5123,
      "count": 276,
      "type": "SCALAR",
      "byteOffset": 15012
    },
    {
      "bufferView": 2,
      "componentType": 5123,
      "count": 276,
      "type": "SCALAR",
      "byteOffset": 15564
    },
    {
      "bufferView": 2,
      "componentType": 5123,
      "count": 546,
      "type": "SCALAR",
      "byteOffset": 16116
    },
    {
      "bufferView": 2,
      "componentType": 5123,
      "count": 72,
      "type": "SCALAR",
      "byteOffset": 17208
    },
    {
      "bufferView": 2,
      "componentType": 5123,
      "count": 276,
      "type": "SCALAR",
      "byteOffset": 17352
    },
    {
      "bufferView": 2,
      "componentType": 5123,
      "count": 276,
      "type": "SCALAR",
      "byteOffset": 17904
    },
    {
      "bufferView": 2,
      "componentType": 5123,
      "count": 276,
      "type": "SCALAR",
      "byteOffset": 18456
    },
    {
      "bufferView": 2,
      "componentType": 5123,
      "count": 546,
      "type": "SCALAR",
      "byteOffset": 19008
    },
    {
      "bufferView": 2,
      "componentType": 5123,
      "count": 72,
      "type": "SCALAR",
      "byteOffset": 20100
    },
    {
      "bufferView": 2,
      "componentType": 5123,
      "count": 276,
      "type": "SCALAR",
      "byteOffset": 20244
    },
    {
      "bufferView": 2,
      "componentType": 5123,
      "count": 276,
      "type": "SCALAR",
      "byteOffset": 20796
    },
    {
      "bufferView": 2,
      "componentType": 5123,
      "count": 276,
      "type": "SCALAR",
      "byteOffset": 21348
    },
    {
      "bufferView": 2,
      "componentType": 5123,
      "count": 546,
      "type": "SCALAR",
      "byteOffset": 21900
    },
    {
      "bufferView": 2,
      "componentType": 5123,
      "count": 72,
      "type": "SCALAR",
      "byteOffset": 22992
    },
    {
      "bufferView": 2,
      "componentType": 5123,
      "count": 276,
      "type": "SCALAR",
      "byteOffset": 23136
    },
    {
      "bufferView": 2,
      "componentType": 5123,
      "count": 276,
      "type": "SCALAR",
      "byteOffset": 23688
    },
    {
      "bufferView": 2,
      "componentType": 5123,
      "count": 276,
      "type": "SCALAR",
      "byteOffset": 24240
    },
    {
      "bufferView": 2,
      "componentType": 5123,
      "count": 546,
      "type": "SCALAR",
      "byteOffset": 24792
    },
    {
      "bufferView": 2,
      "componentType": 5123,
      "count": 72,
      "type": "SCALAR",
      "byteOffset": 25884
    }
  ],
  "bufferViews": [
    {
      "buffer": 0,
      "byteLength": 49728,
      "target": 34962,
      "byteStride": 12
    },
    {
      "buffer": 0,
      "byteOffset": 49728,
      "byteLength": 49728,
      "target": 34962,
      "byteStride": 12
    },
    {
      "buffer": 0,
      "byteOffset": 99456,
      "byteLength": 26028,
      "target": 34963
    }
  ],
  "buffers": [
    {
      "uri": "data:application/octet-stream;base64,",
      "byteLength": 125484
    }
  ]
}